<?xml version="1.0" standalone="no"?><!DOCTYPE svg PUBLIC "-//W3C//DTD SVG 1.1//EN" "http://www.w3.org/Graphics/SVG/1.1/DTD/svg11.dtd"><svg t="1742703844073" class="icon" viewBox="0 0 1024 1024" version="1.1" xmlns="http://www.w3.org/2000/svg" p-id="1484" xmlns:xlink="http://www.w3.org/1999/xlink" width="200" height="200"><path d="M512 957.155556c-12.8 0-25.6-4.266667-36.977778-12.8C460.8 932.977778 142.222222 705.422222 142.222222 512V197.688889c0-24.177778 17.066667-46.933333 42.666667-52.622222l312.888889-86.755556c9.955556-2.844444 19.911111-2.844444 29.866666 0l312.888889 86.755556c24.177778 7.111111 41.244444 28.444444 41.244445 52.622222V512c0 193.422222-318.577778 420.977778-332.8 432.355556-11.377778 8.533333-24.177778 12.8-36.977778 12.8zM199.111111 199.111111v312.888889c0 137.955556 226.133333 315.733333 312.888889 388.266667l18.488889 21.333333-18.488889-21.333333c86.755556-72.533333 312.888889-250.311111 312.888889-388.266667V199.111111L512 113.777778l-312.888889 85.333333z" p-id="1485"></path><path d="M448 571.733333l-122.311111-133.688889c-9.955556-11.377778-9.955556-29.866667 1.422222-39.822222 11.377778-9.955556 29.866667-9.955556 39.822222 1.422222l93.866667 103.822223c5.688889 5.688889 14.222222 5.688889 19.911111 1.422222L684.088889 312.888889c11.377778-11.377778 29.866667-9.955556 39.822222 1.422222 11.377778 11.377778 9.955556 29.866667-1.422222 39.822222L490.666667 574.577778c-11.377778 11.377778-31.288889 9.955556-42.666667-2.844445z" fill="#ffc43c" p-id="1486"></path></svg>